<svg xmlns="http://www.w3.org/2000/svg" width="1200" height="675" viewBox="0 0 1200 675" role="img" aria-labelledby="title desc">
<title id="title">AstroVip – Câștig la Loto, Roma 2020</title><desc id="desc">Ilustrație premium negru și auriu cu bile de loterie, cerc astrologic și accente de timing.</desc>
<defs><radialGradient id="bg" cx="50%" cy="42%" r="70%"><stop offset="0" stop-color="#241702"/><stop offset=".42" stop-color="#090a09"/><stop offset="1" stop-color="#020303"/></radialGradient><linearGradient id="gold" x1="0" y1="0" x2="1" y2="1"><stop offset="0" stop-color="#fff2bd"/><stop offset=".24" stop-color="#f5cf72"/><stop offset=".6" stop-color="#b87816"/><stop offset="1" stop-color="#ffe19a"/></linearGradient><filter id="glow"><feGaussianBlur stdDeviation="8" result="b"/><feMerge><feMergeNode in="b"/><feMergeNode in="SourceGraphic"/></feMerge></filter></defs>
<rect width="1200" height="675" fill="url(#bg)"/>
<g opacity=".55" fill="#f4c96a"><circle cx="86" cy="94" r="2"/><circle cx="180" cy="154" r="1.5"/><circle cx="1045" cy="85" r="2"/><circle cx="1094" cy="205" r="1.3"/><circle cx="960" cy="544" r="2"/><circle cx="250" cy="566" r="1.5"/><circle cx="704" cy="85" r="1.5"/><circle cx="469" cy="110" r="1.2"/></g>
<g transform="translate(820 335)" fill="none" stroke="url(#gold)" filter="url(#glow)"><circle r="202" stroke-width="2.5" opacity=".95"/><circle r="164" stroke-width="1.5" opacity=".65"/><circle r="118" stroke-width="1.2" opacity=".45"/><path d="M-202 0H202M0-202V202M-143-143L143 143M143-143L-143 143" stroke-width="1" opacity=".26"/></g>
<g font-family="Georgia,serif" fill="#f8dea0" font-size="35" text-anchor="middle" opacity=".92"><text x="820" y="155">♃</text><text x="996" y="225">♄</text><text x="1000" y="455">♆</text><text x="820" y="535">♅</text><text x="648" y="454">☉</text><text x="645" y="230">☾</text></g>
<g filter="url(#glow)"><circle cx="780" cy="332" r="74" fill="url(#gold)"/><circle cx="780" cy="332" r="61" fill="#15100a" stroke="#fff0b4" stroke-width="2"/><text x="780" y="354" text-anchor="middle" font-family="Arial,sans-serif" font-weight="800" font-size="62" fill="#f8d47e">7</text><circle cx="922" cy="292" r="52" fill="url(#gold)"/><circle cx="922" cy="292" r="42" fill="#171108"/><text x="922" y="307" text-anchor="middle" font-family="Arial,sans-serif" font-weight="800" font-size="40" fill="#f7d27b">14</text><circle cx="930" cy="420" r="42" fill="url(#gold)"/><circle cx="930" cy="420" r="34" fill="#171108"/><text x="930" y="433" text-anchor="middle" font-family="Arial,sans-serif" font-weight="800" font-size="30" fill="#f7d27b">20</text></g>
<g transform="translate(70 100)"><text x="0" y="0" font-family="Arial,sans-serif" font-size="22" letter-spacing="5" fill="#d7b45d">ASTROVIP · STUDIU DE CAZ 02</text><text x="0" y="86" font-family="Georgia,serif" font-size="74" font-weight="700" fill="url(#gold)">CÂȘTIG LA LOTO</text><text x="0" y="136" font-family="Arial,sans-serif" font-size="28" fill="#f3ede2">Roma · 14 februarie 2020 · 08:00</text><line x1="0" y1="171" x2="455" y2="171" stroke="#d5aa48" stroke-width="2"/><text x="0" y="220" font-family="Arial,sans-serif" font-size="25" fill="#f5d98e">Soare ☍ Saturn natal · orb ~0°15′</text><text x="0" y="263" font-family="Arial,sans-serif" font-size="25" fill="#f5d98e">Uranus 135° Neptun natal · orb ~0°09′</text><text x="0" y="326" font-family="Arial,sans-serif" font-size="21" fill="#c8c0b2">Validare simultană: planetă + axă/cuspidă</text><rect x="0" y="364" width="300" height="58" rx="12" fill="none" stroke="#e7bd5b" stroke-width="2"/><text x="150" y="402" text-anchor="middle" font-family="Arial,sans-serif" font-size="24" font-weight="800" fill="#f0cf80">TIMING-UL CONTEAZĂ</text></g>
<text x="70" y="622" font-family="Arial,sans-serif" font-size="17" fill="#8f887d">Analiză astrologică retrospectivă · conținut experimental și informativ · fără garanția unui câștig</text>
</svg>